<svg width="36" height="36" viewBox="0 0 36 36" fill="none" xmlns="http://www.w3.org/2000/svg">
<g clip-path="url(#clip0_741_211)">
<path d="M3.10964 28.8796C3.03193 28.9936 2.99144 29.1226 2.9922 29.2537C2.99296 29.3848 3.03494 29.5135 3.11396 29.6269C3.19298 29.7402 3.30628 29.8343 3.44256 29.8998C3.57884 29.9653 3.73333 29.9999 3.89064 30.0001H34.5402C34.6975 29.9999 34.852 29.9653 34.9882 29.8998C35.1245 29.8343 35.2378 29.7402 35.3168 29.6269C35.3959 29.5135 35.4378 29.3848 35.4386 29.2537C35.4394 29.1226 35.3989 28.9936 35.3212 28.8796L31.2362 22.8871C29.6 23.0392 27.9486 22.7461 26.5287 22.0516L29.901 27.0016H8.52981L19.2154 11.3221L22.7965 16.5751C22.8037 15.1456 23.3795 13.8301 24.344 12.7741L19.9982 6.39608C19.9197 6.28066 19.8059 6.18465 19.6684 6.11786C19.5309 6.05106 19.3746 6.01587 19.2154 6.01587C19.0562 6.01587 18.8999 6.05106 18.7624 6.11786C18.6249 6.18465 18.5111 6.28066 18.4326 6.39608L3.10964 28.8796Z" fill="#4366F4"/>
<path fill-rule="evenodd" clip-rule="evenodd" d="M25.341 14.2351C26.0829 13.1151 27.3282 12.2865 28.803 11.9318C30.2777 11.5771 31.8611 11.7252 33.2049 12.3436C34.5486 12.9621 35.5426 14.0001 35.9682 15.2294C36.3937 16.4587 36.216 17.7786 35.4741 18.8986L38.9922 21.8311L36.6528 23.7811L33.1365 20.8486C32.2488 21.2494 31.2503 21.4485 30.2411 21.4261C28.7307 21.3975 27.2939 20.8768 26.2386 19.9756C25.1834 19.0744 24.5937 17.8644 24.596 16.6051M30.3832 18.6721C31.0409 18.6721 31.6716 18.4544 32.1367 18.0667C32.6017 17.6791 32.863 17.1533 32.863 16.6051C32.863 16.0569 32.6017 15.5312 32.1367 15.1435C31.6716 14.7559 31.0409 14.5381 30.3832 14.5381C29.7256 14.5381 29.0948 14.7559 28.6298 15.1435C28.1647 15.5312 27.9035 16.0569 27.9035 16.6051C27.9035 17.1533 28.1647 17.6791 28.6298 18.0667C29.0948 18.4544 29.7256 18.6721 30.3832 18.6721Z" fill="#4366F4"/>
<path d="M24.5959 16.6051C24.5941 15.7747 24.8508 14.9581 25.3409 14.2351L24.5959 16.6051ZM17.8477 25.5001V23.2501H20.5469V25.5001H17.8477ZM19.1973 16.5001C18.8394 16.5001 18.4961 16.6186 18.243 16.8296C17.9899 17.0406 17.8477 17.3267 17.8477 17.6251V21.3751C17.8477 21.6735 17.9899 21.9596 18.243 22.1706C18.4961 22.3816 18.8394 22.5001 19.1973 22.5001C19.5552 22.5001 19.8985 22.3816 20.1516 22.1706C20.4047 21.9596 20.5469 21.6735 20.5469 21.3751V17.6251C20.5469 17.3267 20.4047 17.0406 20.1516 16.8296C19.8985 16.6186 19.5552 16.5001 19.1973 16.5001Z" fill="#4366F4"/>
</g>
<defs>
<clipPath id="clip0_741_211">
<rect width="36" height="36" fill="white"/>
</clipPath>
</defs>
</svg>
