<svg width="47" height="44" viewBox="0 0 47 44" fill="none" xmlns="http://www.w3.org/2000/svg">
<path d="M5.38281 0C3.9552 0 2.58606 0.567116 1.57659 1.57659C0.567116 2.58606 0 3.9552 0 5.38281V18.5003C1.82268 16.1786 4.46227 14.6395 7.38058 14.1969C10.2989 13.7542 13.2761 14.4413 15.7053 16.1181C18.1345 17.7949 19.8327 20.335 20.4536 23.2207C21.0745 26.1063 20.5714 29.1201 19.0469 31.6476V34.7812H40.9922C42.4198 34.7812 43.7889 34.2141 44.7984 33.2047C45.8079 32.1952 46.375 30.826 46.375 29.3984V5.38281C46.375 3.9552 45.8079 2.58606 44.7984 1.57659C43.7889 0.567116 42.4198 0 40.9922 0H5.38281ZM11.5938 9.9375H34.7812C35.2205 9.9375 35.6418 10.112 35.9524 10.4226C36.263 10.7332 36.4375 11.1545 36.4375 11.5938C36.4375 12.033 36.263 12.4543 35.9524 12.7649C35.6418 13.0755 35.2205 13.25 34.7812 13.25H11.5938C11.1545 13.25 10.7332 13.0755 10.4226 12.7649C10.112 12.4543 9.9375 12.033 9.9375 11.5938C9.9375 11.1545 10.112 10.7332 10.4226 10.4226C10.7332 10.112 11.1545 9.9375 11.5938 9.9375ZM23.1875 23.1875C23.1875 22.7482 23.362 22.327 23.6726 22.0164C23.9832 21.7057 24.4045 21.5312 24.8438 21.5312H34.7812C35.2205 21.5312 35.6418 21.7057 35.9524 22.0164C36.263 22.327 36.4375 22.7482 36.4375 23.1875C36.4375 23.6268 36.263 24.048 35.9524 24.3586C35.6418 24.6693 35.2205 24.8438 34.7812 24.8438H24.8438C24.4045 24.8438 23.9832 24.6693 23.6726 24.3586C23.362 24.048 23.1875 23.6268 23.1875 23.1875ZM18.2188 25.6719C18.2188 28.0878 17.259 30.4048 15.5507 32.1132C13.8423 33.8215 11.5253 34.7812 9.10938 34.7812C6.69342 34.7812 4.37641 33.8215 2.66807 32.1132C0.959735 30.4048 0 28.0878 0 25.6719C0 23.2559 0.959735 20.9389 2.66807 19.2306C4.37641 17.5222 6.69342 16.5625 9.10938 16.5625C11.5253 16.5625 13.8423 17.5222 15.5507 19.2306C17.259 20.9389 18.2188 23.2559 18.2188 25.6719ZM16.5625 34.5527C14.4765 36.3089 11.8362 37.2699 9.10938 37.2656C6.38256 37.2699 3.74224 36.3089 1.65625 34.5527V41.4062C1.65632 41.7015 1.73534 41.9914 1.88511 42.2459C2.03488 42.5004 2.24996 42.7102 2.50807 42.8536C2.76619 42.997 3.05795 43.0688 3.35315 43.0616C3.64834 43.0543 3.93623 42.9683 4.187 42.8124L9.10938 39.7483L14.0317 42.8124C14.2826 42.9684 14.5707 43.0544 14.866 43.0616C15.1614 43.0688 15.4532 42.9968 15.7114 42.8532C15.9696 42.7096 16.1846 42.4996 16.3343 42.2448C16.4839 41.9901 16.5627 41.7 16.5625 41.4046V34.5527Z" fill="#FFA629"/>
</svg>
