<svg width="30" height="30" viewBox="0 0 30 30" fill="none" xmlns="http://www.w3.org/2000/svg">
<path d="M10.9375 7.8125C10.9375 6.73506 11.3655 5.70175 12.1274 4.93988C12.8892 4.17801 13.9226 3.75 15 3.75C16.0774 3.75 17.1108 4.17801 17.8726 4.93988C18.6345 5.70175 19.0625 6.73506 19.0625 7.8125C19.0625 8.88994 18.6345 9.92325 17.8726 10.6851C17.1108 11.447 16.0774 11.875 15 11.875C13.9226 11.875 12.8892 11.447 12.1274 10.6851C11.3655 9.92325 10.9375 8.88994 10.9375 7.8125ZM6.25 6.25C5.25544 6.25 4.30161 6.64509 3.59835 7.34835C2.89509 8.05161 2.5 9.00544 2.5 10C2.5 10.9946 2.89509 11.9484 3.59835 12.6517C4.30161 13.3549 5.25544 13.75 6.25 13.75C7.24456 13.75 8.19839 13.3549 8.90165 12.6517C9.60491 11.9484 10 10.9946 10 10C10 9.00544 9.60491 8.05161 8.90165 7.34835C8.19839 6.64509 7.24456 6.25 6.25 6.25ZM23.75 6.25C22.7554 6.25 21.8016 6.64509 21.0983 7.34835C20.3951 8.05161 20 9.00544 20 10C20 10.9946 20.3951 11.9484 21.0983 12.6517C21.8016 13.3549 22.7554 13.75 23.75 13.75C24.7446 13.75 25.6984 13.3549 26.4017 12.6517C27.1049 11.9484 27.5 10.9946 27.5 10C27.5 9.00544 27.1049 8.05161 26.4017 7.34835C25.6984 6.64509 24.7446 6.25 23.75 6.25ZM11.5625 13.75C10.9823 13.75 10.4259 13.9805 10.0157 14.3907C9.60547 14.8009 9.375 15.3573 9.375 15.9375V20.625C9.375 22.1168 9.96763 23.5476 11.0225 24.6025C12.0774 25.6574 13.5082 26.25 15 26.25C16.4918 26.25 17.9226 25.6574 18.9775 24.6025C20.0324 23.5476 20.625 22.1168 20.625 20.625V15.9375C20.625 15.3573 20.3945 14.8009 19.9843 14.3907C19.5741 13.9805 19.0177 13.75 18.4375 13.75H11.5625ZM8.2625 14.9725C8.17167 15.28 8.12583 15.6017 8.125 15.9375V20.625C8.12398 21.6484 8.35188 22.6592 8.79202 23.5831C9.23216 24.5071 9.87339 25.3209 10.6687 25.965C9.94134 26.2062 9.17231 26.2962 8.40886 26.2295C7.64541 26.1628 6.90365 25.9408 6.22908 25.5771C5.55451 25.2134 4.96137 24.7157 4.48606 24.1146C4.01075 23.5134 3.66329 22.8215 3.465 22.0813L2.575 18.7612C2.50051 18.4837 2.48142 18.1943 2.51882 17.9094C2.55621 17.6245 2.64937 17.3498 2.79296 17.1009C2.93655 16.8521 3.12776 16.6339 3.35567 16.459C3.58358 16.284 3.84373 16.1557 4.12125 16.0812L8.2625 14.9725ZM19.3313 25.9637C20.1263 25.3199 20.7673 24.5065 21.2074 23.583C21.6476 22.6595 21.8757 21.6493 21.875 20.6262V15.9388C21.8742 15.6004 21.8283 15.2779 21.7375 14.9713L25.88 16.0812C26.4402 16.2315 26.9178 16.5981 27.2078 17.1005C27.4977 17.6028 27.5763 18.1997 27.4262 18.76L26.5363 22.0813C26.3378 22.8215 25.9902 23.5135 25.5148 24.1146C25.0393 24.7157 24.446 25.2133 23.7714 25.5769C23.0967 25.9405 22.3548 26.1623 21.5913 26.2288C20.8277 26.2954 20.0587 26.2052 19.3313 25.9637Z" fill="#4366F4"/>
</svg>
