<svg width="30" height="30" viewBox="0 0 30 30" fill="none" xmlns="http://www.w3.org/2000/svg">
<path fill-rule="evenodd" clip-rule="evenodd" d="M15 2.5C8.09625 2.5 2.5 8.09625 2.5 15C2.5 21.9037 8.09625 27.5 15 27.5C21.9037 27.5 27.5 21.9037 27.5 15C27.5 8.09625 21.9037 2.5 15 2.5ZM10.625 11.875C10.625 11.3005 10.7382 10.7316 10.958 10.2008C11.1779 9.66996 11.5002 9.18766 11.9064 8.78141C12.3127 8.37515 12.795 8.05289 13.3258 7.83303C13.8566 7.61316 14.4255 7.5 15 7.5C15.5745 7.5 16.1434 7.61316 16.6742 7.83303C17.205 8.05289 17.6873 8.37515 18.0936 8.78141C18.4998 9.18766 18.8221 9.66996 19.042 10.2008C19.2618 10.7316 19.375 11.3005 19.375 11.875C19.375 13.0353 18.9141 14.1481 18.0936 14.9686C17.2731 15.7891 16.1603 16.25 15 16.25C13.8397 16.25 12.7269 15.7891 11.9064 14.9686C11.0859 14.1481 10.625 13.0353 10.625 11.875ZM22.8225 21.23C21.8865 22.4067 20.6969 23.3569 19.3424 24.0096C17.9879 24.6624 16.5036 25.0009 15 25C13.4964 25.0009 12.0121 24.6624 10.6576 24.0096C9.30312 23.3569 8.11351 22.4067 7.1775 21.23C9.20375 19.7762 11.9688 18.75 15 18.75C18.0312 18.75 20.7962 19.7762 22.8225 21.23Z" fill="#FF8600"/>
</svg>
