<svg width="30" height="30" viewBox="0 0 30 30" fill="none" xmlns="http://www.w3.org/2000/svg">
<path d="M14.9995 5.95459C16.3135 5.95459 17.5743 6.4766 18.5034 7.40576C19.4324 8.33481 19.9545 9.59485 19.9546 10.9087C19.9546 12.2227 19.4326 13.4834 18.5034 14.4126C17.5743 15.3418 16.3135 15.8638 14.9995 15.8638C13.6857 15.8637 12.4256 15.3416 11.4966 14.4126C10.5674 13.4834 10.0454 12.2227 10.0454 10.9087C10.0455 9.59482 10.5675 8.33481 11.4966 7.40576C12.4256 6.47671 13.6856 5.95471 14.9995 5.95459ZM14.9995 7.68213C14.1437 7.68225 13.3234 8.02232 12.7183 8.62744C12.1131 9.23257 11.7731 10.0529 11.7729 10.9087C11.7729 11.7646 12.113 12.5857 12.7183 13.1909C13.3234 13.796 14.1438 14.1361 14.9995 14.1362C15.8554 14.1362 16.6765 13.7961 17.2817 13.1909C17.887 12.5857 18.2271 11.7646 18.2271 10.9087C18.2269 10.0529 17.8868 9.23256 17.2817 8.62744C16.6765 8.02221 15.8554 7.68213 14.9995 7.68213Z" fill="#4366F4" stroke="#4366F4"/>
<path d="M15 0.5C23.0079 0.5 29.5 6.99205 29.5 15C29.5 23.0079 23.0079 29.5 15 29.5C6.99205 29.5 0.5 23.0079 0.5 15C0.5 6.99205 6.99205 0.5 15 0.5ZM15.0889 19.9541C13.4726 19.9527 11.8798 20.3423 10.4463 21.0889C9.01275 21.8355 7.78087 22.918 6.85547 24.2432L6.58984 24.624L6.9502 24.917C9.22382 26.7682 12.0671 27.7758 14.999 27.7715V27.7725C17.9836 27.7771 20.8753 26.7323 23.167 24.8203L23.5234 24.5225L23.2529 24.1455C22.3235 22.8478 21.0978 21.7904 19.6777 21.0615C18.2579 20.3328 16.6848 19.9528 15.0889 19.9541ZM19.0879 2.90039C17.1665 2.25133 15.1181 2.06941 13.1123 2.36914C11.1065 2.66888 9.20045 3.44161 7.55273 4.62402C5.90509 5.80643 4.56283 7.36475 3.63672 9.16895C2.71065 10.9731 2.2278 12.972 2.22754 15L2.23926 15.5537C2.35676 18.3052 3.34583 20.8325 4.93555 22.8652L5.33398 23.376L5.72656 22.8604C6.82457 21.4191 8.24135 20.2509 9.86523 19.4473C11.4889 18.6438 13.2763 18.2264 15.0879 18.2275H15.0889C16.8773 18.2255 18.6434 18.6312 20.251 19.415C21.8584 20.1988 23.2655 21.3397 24.3652 22.75L24.7637 23.2617L25.1572 22.7461C26.3868 21.1335 27.2145 19.251 27.5723 17.2549C27.93 15.2586 27.807 13.205 27.2139 11.2656C26.6207 9.32641 25.5742 7.55613 24.1611 6.10156C22.748 4.64701 21.0092 3.54942 19.0879 2.90039Z" fill="#4366F4" stroke="#4366F4"/>
</svg>
