<svg width="30" height="30" viewBox="0 0 30 30" fill="none" xmlns="http://www.w3.org/2000/svg">
<path d="M15.9738 0.0312538C13.6929 -0.117461 11.4086 0.265959 9.3013 1.15125C7.19047 2.03687 5.31474 3.40163 3.82255 5.1375C2.32514 6.87666 1.24935 8.93796 0.678925 11.1609C0.108499 13.3839 0.0588339 15.7085 0.533797 17.9538C1.00508 20.1984 1.98905 22.3037 3.4088 24.105C4.82513 25.9035 6.63935 27.3488 8.7088 28.3275C10.7747 29.3055 13.04 29.7892 15.3253 29.7402C17.6105 29.6911 19.8529 29.1108 21.875 28.045C21.9399 28.0119 22.0123 27.9966 22.085 28.0005C22.1576 28.0045 22.2279 28.0276 22.2888 28.0675C24.209 29.3535 26.4741 30.0269 28.785 29.9988C28.8396 29.9991 28.8938 29.9886 28.9443 29.9678C28.9948 29.9471 29.0406 29.9165 29.0792 29.8779C29.1178 29.8393 29.1484 29.7935 29.1691 29.743C29.1899 29.6925 29.2004 29.6383 29.2 29.5838V24.5363C29.2007 24.4377 29.1664 24.342 29.1032 24.2663C29.0401 24.1906 28.9522 24.1396 28.855 24.1225C28.3796 24.0467 27.9153 23.9128 27.4725 23.7238C27.39 23.6867 27.3219 23.6236 27.2788 23.5441C27.2357 23.4646 27.2198 23.3731 27.2338 23.2838C27.241 23.2241 27.2625 23.1671 27.2963 23.1175C28.7401 20.9443 29.5891 18.4305 29.7584 15.8269C29.9277 13.2232 29.4115 10.6207 28.2613 8.27875C27.1141 5.94038 25.3715 3.94519 23.2088 2.49375C21.0512 1.04553 18.5493 0.193018 15.9563 0.0225038L15.9738 0.0312538ZM6.0538 14.8725C6.05246 13.0919 6.57641 11.3505 7.56005 9.86625C8.54261 8.38692 9.94087 7.23134 11.5788 6.545C13.216 5.86018 15.0203 5.67969 16.7606 6.02665C18.501 6.37361 20.0982 7.23222 21.3475 8.4925C22.6012 9.75636 23.4542 11.3619 23.8 13.1081C24.1457 14.8544 23.9688 16.6638 23.2913 18.31C22.6137 19.9543 21.464 21.361 19.9875 22.3525C18.265 23.507 16.1945 24.0266 14.1309 23.8223C12.0673 23.618 10.139 22.7024 8.6763 21.2325C6.99528 19.5418 6.05043 17.2554 6.04755 14.8713L6.0538 14.8725Z" fill="#FF8600"/>
</svg>
