<svg width="61" height="61" viewBox="0 0 61 61" fill="none" xmlns="http://www.w3.org/2000/svg">
<g clip-path="url(#clip0_709_191)">
<path d="M25.1387 0.869711C24.4238 0.119126 23.3515 -0.166812 22.3508 0.0952974C21.35 0.357407 20.5756 1.15565 20.3135 2.15643L18.431 9.60272L11.0443 7.51776C10.0435 7.23182 8.97127 7.51776 8.24452 8.24452C7.51776 8.97127 7.23182 10.0435 7.51776 11.0443L9.60272 18.431L2.15643 20.3254C1.15565 20.5756 0.369321 21.3619 0.0952974 22.3627C-0.178726 23.3635 0.119126 24.4238 0.869711 25.1387L6.37401 30.5L0.869711 35.8613C0.119126 36.5762 -0.166812 37.6484 0.0952974 38.6492C0.357407 39.65 1.15565 40.4244 2.15643 40.6865L9.60272 42.5689L7.51776 49.9556C7.23182 50.9564 7.51776 52.0287 8.24452 52.7555C8.97127 53.4822 10.0435 53.7682 11.0443 53.4822L18.431 51.3973L20.3135 58.8435C20.5637 59.8443 21.35 60.6306 22.3508 60.9047C23.3515 61.1787 24.4119 60.8808 25.1387 60.1422L30.5 54.6379L35.8613 60.1422C36.5881 60.8808 37.6484 61.1787 38.6492 60.9047C39.65 60.6306 40.4244 59.8443 40.6865 58.8435L42.5689 51.3973L49.9556 53.4822C50.9564 53.7682 52.0287 53.4822 52.7555 52.7555C53.4822 52.0287 53.7682 50.9564 53.4822 49.9556L51.3973 42.5689L58.8435 40.6865C59.8443 40.4363 60.6306 39.65 60.9047 38.6492C61.1787 37.6484 60.8808 36.5762 60.1422 35.8613L54.6379 30.5L60.1422 25.1387C60.8808 24.4119 61.1787 23.3515 60.9047 22.3508C60.6306 21.35 59.8443 20.5756 58.8435 20.3135L51.3973 18.431L53.4822 11.0443C53.7682 10.0435 53.4822 8.97127 52.7555 8.24452C52.0287 7.51776 50.9564 7.23182 49.9556 7.51776L42.5689 9.60272L40.6746 2.15643C40.4244 1.15565 39.6381 0.369321 38.6373 0.0952974C37.6365 -0.178726 36.5762 0.119126 35.8613 0.869711L30.5 6.37401L25.1387 0.869711Z" fill="#4366F4"/>
</g>
<defs>
<clipPath id="clip0_709_191">
<rect width="61" height="61" fill="white"/>
</clipPath>
</defs>
</svg>
