<svg width="60" height="60" viewBox="0 0 60 60" fill="none" xmlns="http://www.w3.org/2000/svg">
<path d="M22.5 12.5C25.1522 12.5 27.6957 13.5536 29.5711 15.4289C31.4464 17.3043 32.5 19.8478 32.5 22.5C32.5 25.1522 31.4464 27.6957 29.5711 29.5711C27.6957 31.4464 25.1522 32.5 22.5 32.5C19.8478 32.5 17.3043 31.4464 15.4289 29.5711C13.5536 27.6957 12.5 25.1522 12.5 22.5C12.5 19.8478 13.5536 17.3043 15.4289 15.4289C17.3043 13.5536 19.8478 12.5 22.5 12.5ZM22.5 37.5C29.175 37.5 42.5 40.85 42.5 47.5V52.5H2.5V47.5C2.5 40.85 15.825 37.5 22.5 37.5ZM41.9 13.4C46.95 18.9 46.95 26.525 41.9 31.575L37.7 27.35C39.8 24.4 39.8 20.575 37.7 17.625L41.9 13.4ZM50.175 5C60 15.125 59.925 30.275 50.175 40L46.1 35.925C53.025 27.975 53.025 16.625 46.1 9.075L50.175 5Z" fill="white"/>
</svg>
