<svg width="33" height="33" viewBox="0 0 33 33" fill="none" xmlns="http://www.w3.org/2000/svg">
<path d="M5.41406 4.125C4.52517 4.125 3.67269 4.47811 3.04415 5.10665C2.41561 5.73519 2.0625 6.58767 2.0625 7.47656V15.6441C3.19738 14.1985 4.8409 13.2402 6.65796 12.9646C8.47501 12.6889 10.3288 13.1168 11.8413 14.1608C13.3538 15.2048 14.4111 16.7864 14.7978 18.5831C15.1844 20.3799 14.8711 22.2564 13.9219 23.8301V25.7812H27.5859C28.4748 25.7812 29.3273 25.4281 29.9559 24.7996C30.5844 24.1711 30.9375 23.3186 30.9375 22.4297V7.47656C30.9375 6.58767 30.5844 5.73519 29.9559 5.10665C29.3273 4.47811 28.4748 4.125 27.5859 4.125H5.41406ZM9.28125 10.3125H23.7188C23.9923 10.3125 24.2546 10.4211 24.448 10.6145C24.6414 10.8079 24.75 11.0702 24.75 11.3438C24.75 11.6173 24.6414 11.8796 24.448 12.073C24.2546 12.2664 23.9923 12.375 23.7188 12.375H9.28125C9.00775 12.375 8.74544 12.2664 8.55205 12.073C8.35865 11.8796 8.25 11.6173 8.25 11.3438C8.25 11.0702 8.35865 10.8079 8.55205 10.6145C8.74544 10.4211 9.00775 10.3125 9.28125 10.3125ZM16.5 18.5625C16.5 18.289 16.6086 18.0267 16.802 17.8333C16.9954 17.6399 17.2577 17.5312 17.5312 17.5312H23.7188C23.9923 17.5312 24.2546 17.6399 24.448 17.8333C24.6414 18.0267 24.75 18.289 24.75 18.5625C24.75 18.836 24.6414 19.0983 24.448 19.2917C24.2546 19.4851 23.9923 19.5938 23.7188 19.5938H17.5312C17.2577 19.5938 16.9954 19.4851 16.802 19.2917C16.6086 19.0983 16.5 18.836 16.5 18.5625ZM13.4062 20.1094C13.4062 21.6136 12.8087 23.0563 11.745 24.12C10.6813 25.1837 9.23865 25.7812 7.73438 25.7812C6.2301 25.7812 4.78744 25.1837 3.72375 24.12C2.66007 23.0563 2.0625 21.6136 2.0625 20.1094C2.0625 18.6051 2.66007 17.1624 3.72375 16.0988C4.78744 15.0351 6.2301 14.4375 7.73438 14.4375C9.23865 14.4375 10.6813 15.0351 11.745 16.0988C12.8087 17.1624 13.4062 18.6051 13.4062 20.1094ZM12.375 25.6389C11.0762 26.7324 9.4322 27.3308 7.73438 27.3281C6.03655 27.3308 4.39258 26.7324 3.09375 25.6389V29.9062C3.09379 30.0901 3.14299 30.2706 3.23624 30.4291C3.3295 30.5875 3.46342 30.7181 3.62413 30.8074C3.78484 30.8967 3.96651 30.9415 4.15031 30.9369C4.33411 30.9324 4.51336 30.8789 4.6695 30.7818L7.73438 28.874L10.7992 30.7818C10.9555 30.8789 11.1348 30.9325 11.3187 30.9369C11.5026 30.9414 11.6843 30.8966 11.8451 30.8072C12.0058 30.7178 12.1397 30.587 12.2329 30.4284C12.3261 30.2698 12.3751 30.0892 12.375 29.9052V25.6389Z" fill="#FFA629"/>
</svg>
