<svg width="50" height="50" viewBox="0 0 50 50" fill="none" xmlns="http://www.w3.org/2000/svg">
<path d="M10.4166 18.75C10.4166 14.8822 11.9531 11.1729 14.688 8.43799C17.4229 5.70308 21.1322 4.16663 25 4.16663C28.8677 4.16663 32.577 5.70308 35.3119 8.43799C38.0468 11.1729 39.5833 14.8822 39.5833 18.75V20.9062C43.1166 21.4125 45.8333 24.452 45.8333 28.125V28.6458C45.8333 32.3437 42.6437 35.5854 38.8916 35.4125C37.35 39.8291 33.4291 42.8062 29.1979 43.5604C28.2187 43.9187 27.0604 43.75 26.0416 43.75C25.2128 43.75 24.418 43.4207 23.8319 42.8347C23.2459 42.2486 22.9166 41.4538 22.9166 40.625C22.9166 39.7962 23.2459 39.0013 23.8319 38.4153C24.418 37.8292 25.2128 37.5 26.0416 37.5C27.6937 37.5 29.5229 37.2604 30.6395 38.7687C33.3395 37.4833 35.4166 34.7687 35.4166 31.25V18.75C35.4166 15.9873 34.3192 13.3378 32.3657 11.3843C30.4122 9.43076 27.7626 8.33329 25 8.33329C22.2373 8.33329 19.5878 9.43076 17.6343 11.3843C15.6808 13.3378 14.5833 15.9873 14.5833 18.75V31.7708C14.5833 32.7377 14.1992 33.6651 13.5155 34.3488C12.8317 35.0325 11.9044 35.4166 10.9375 35.4166C9.14172 35.4166 7.41954 34.7033 6.14976 33.4335C4.87998 32.1637 4.16663 30.4415 4.16663 28.6458V28.125C4.16618 26.3712 4.79779 24.6761 5.9457 23.3503C7.09361 22.0244 8.6809 21.1567 10.4166 20.9062V18.75Z" fill="white"/>
</svg>
