<svg width="50" height="50" viewBox="0 0 50 50" fill="none" xmlns="http://www.w3.org/2000/svg">
<path d="M26.623 0.0520896C22.8215 -0.195768 19.0144 0.443264 15.5022 1.91876C11.9841 3.39479 8.8579 5.66938 6.37091 8.56251C3.87524 11.4611 2.08225 14.8966 1.13154 18.6015C0.180831 22.3064 0.0980564 26.1808 0.889662 29.9229C1.67514 33.664 3.31508 37.1728 5.68133 40.175C8.04188 43.1724 11.0656 45.5814 14.5147 47.2125C17.9579 48.8426 21.7334 49.6487 25.5421 49.5669C29.3508 49.4852 33.0882 48.5179 36.4584 46.7417C36.5664 46.6865 36.6871 46.661 36.8083 46.6676C36.9294 46.6741 37.0466 46.7127 37.148 46.7792C40.3484 48.9225 44.1236 50.0448 47.9751 49.9979C48.0661 49.9985 48.1563 49.981 48.2404 49.9464C48.3246 49.9118 48.4011 49.8609 48.4654 49.7966C48.5297 49.7322 48.5807 49.6558 48.6152 49.5716C48.6498 49.4874 48.6673 49.3972 48.6667 49.3063V40.8938C48.6678 40.7294 48.6106 40.57 48.5053 40.4438C48.4001 40.3176 48.2536 40.2327 48.0917 40.2042C47.2994 40.0779 46.5255 39.8547 45.7876 39.5396C45.65 39.4779 45.5366 39.3727 45.4647 39.2402C45.3928 39.1077 45.3664 38.9552 45.3897 38.8063C45.4017 38.7069 45.4374 38.6119 45.4938 38.5292C47.9002 34.9071 49.3151 30.7175 49.5973 26.3781C49.8795 22.0387 49.0192 17.7011 47.1022 13.7979C45.1901 9.90063 42.2859 6.57532 38.6813 4.15626C35.0853 1.74255 30.9155 0.321696 26.5938 0.0375063L26.623 0.0520896ZM10.0897 24.7875C10.0874 21.8199 10.9607 18.9175 12.6001 16.4438C14.2377 13.9782 16.5681 12.0522 19.298 10.9083C22.0266 9.76697 25.0338 9.46615 27.9344 10.0444C30.835 10.6227 33.4969 12.0537 35.5792 14.1542C37.6686 16.2606 39.0904 18.9364 39.6666 21.8469C40.2429 24.7573 39.948 27.773 38.8188 30.5167C37.6894 33.2572 35.7734 35.6017 33.3126 37.2542C30.4416 39.1784 26.9909 40.0444 23.5516 39.7038C20.1122 39.3633 16.8983 37.8374 14.4605 35.3875C11.6588 32.5697 10.084 28.759 10.0792 24.7854L10.0897 24.7875Z" fill="#4366F4"/>
</svg>
