<svg width="100" height="100" viewBox="0 0 100 100" fill="none" xmlns="http://www.w3.org/2000/svg">
<path fill-rule="evenodd" clip-rule="evenodd" d="M49.9999 58.8417L72.0957 80.9375C73.2682 82.11 74.8584 82.7687 76.5166 82.7687C78.1747 82.7687 79.7649 82.11 80.9374 80.9375C82.1099 79.765 82.7686 78.1748 82.7686 76.5167C82.7686 74.8585 82.1099 73.2683 80.9374 72.0958L58.8332 50L80.9332 27.9042C81.5135 27.3236 81.9738 26.6345 82.2877 25.876C82.6016 25.1176 82.7631 24.3048 82.7629 23.4839C82.7627 22.6631 82.6009 21.8504 82.2866 21.0921C81.9723 20.3338 81.5117 19.6449 80.9312 19.0646C80.3506 18.4843 79.6614 18.0241 78.903 17.7101C78.1446 17.3962 77.3318 17.2347 76.5109 17.2349C75.6901 17.2351 74.8773 17.3969 74.1191 17.7112C73.3608 18.0255 72.6718 18.4861 72.0916 19.0667L49.9999 41.1625L27.9041 19.0667C27.3278 18.4695 26.6384 17.993 25.876 17.6651C25.1136 17.3372 24.2936 17.1644 23.4637 17.1568C22.6339 17.1492 21.8108 17.3069 21.0426 17.6208C20.2743 17.9347 19.5763 18.3985 18.9892 18.985C18.4021 19.5716 17.9376 20.2692 17.623 21.0371C17.3084 21.8051 17.1499 22.628 17.1567 23.4579C17.1635 24.2877 17.3355 25.1079 17.6627 25.8706C17.9899 26.6333 18.4657 27.3232 19.0624 27.9L41.1666 50L19.0666 72.1C18.4699 72.6768 17.9941 73.3667 17.6669 74.1294C17.3397 74.8921 17.1677 75.7123 17.1609 76.5421C17.1541 77.372 17.3126 78.1949 17.6272 78.9629C17.9418 79.7308 18.4062 80.4284 18.9933 81.015C19.5804 81.6015 20.2785 82.0653 21.0467 82.3792C21.815 82.6931 22.638 82.8508 23.4679 82.8432C24.2978 82.8356 25.1178 82.6628 25.8802 82.3349C26.6425 82.007 27.332 81.5305 27.9082 80.9333L49.9999 58.8417Z" fill="#F24822"/>
</svg>
