<svg width="70" height="70" viewBox="0 0 70 70" fill="none" xmlns="http://www.w3.org/2000/svg">
<path d="M11.6666 11.6666L17.4999 23.3333H26.2499L20.4166 11.6666H26.2499L32.0833 23.3333H40.8333L34.9999 11.6666H40.8333L46.6666 23.3333H55.4166L49.5833 11.6666H58.3333C59.9374 11.6666 61.3112 12.2383 62.4545 13.3816C63.5978 14.525 64.1685 15.8977 64.1666 17.5V52.5C64.1666 54.1041 63.5959 55.4779 62.4545 56.6212C61.3131 57.7645 59.9394 58.3352 58.3333 58.3333H11.6666C10.0624 58.3333 8.68964 57.7626 7.54825 56.6212C6.40686 55.4798 5.8352 54.1061 5.83325 52.5V17.5C5.83325 15.8958 6.40492 14.523 7.54825 13.3816C8.69159 12.2402 10.0644 11.6686 11.6666 11.6666Z" fill="#FF8600"/>
</svg>
