<svg width="70" height="70" viewBox="0 0 70 70" fill="none" xmlns="http://www.w3.org/2000/svg">
<path d="M61.3964 54.5617L38.0954 11.2902C36.4439 8.22227 32.0442 8.22227 30.3913 11.2902L7.0917 54.5617C6.7331 55.2277 6.55332 55.9754 6.5699 56.7316C6.58648 57.4879 6.79885 58.2269 7.18629 58.8766C7.57372 59.5263 8.12299 60.0644 8.78046 60.4384C9.43794 60.8125 10.1812 61.0097 10.9376 61.0107H57.5437C58.3007 61.0108 59.0447 60.8145 59.7032 60.441C60.3616 60.0674 60.9118 59.5294 61.3001 58.8795C61.6883 58.2296 61.9013 57.4902 61.9182 56.7333C61.935 55.9765 61.7553 55.2283 61.3964 54.5617ZM34.244 54.3115C33.7032 54.3115 33.1746 54.1512 32.7249 53.8507C32.2752 53.5502 31.9248 53.1232 31.7178 52.6235C31.5109 52.1239 31.4567 51.5741 31.5622 51.0437C31.6677 50.5133 31.9281 50.0261 32.3106 49.6437C32.693 49.2612 33.1802 49.0008 33.7106 48.8953C34.241 48.7898 34.7908 48.844 35.2904 49.0509C35.7901 49.2579 36.2171 49.6083 36.5176 50.058C36.8181 50.5077 36.9784 51.0363 36.9784 51.5771C36.9784 52.3023 36.6903 52.9979 36.1775 53.5106C35.6647 54.0234 34.9692 54.3115 34.244 54.3115ZM37.2136 26.8105L36.4288 43.4902C36.4288 44.0704 36.1983 44.6268 35.7881 45.037C35.3779 45.4473 34.8215 45.6777 34.2413 45.6777C33.6611 45.6777 33.1047 45.4473 32.6945 45.037C32.2843 44.6268 32.0538 44.0704 32.0538 43.4902L31.269 26.8174C31.2514 26.419 31.3142 26.0211 31.4536 25.6474C31.593 25.2738 31.8062 24.9321 32.0805 24.6426C32.3548 24.3531 32.6846 24.1218 33.0502 23.9625C33.4158 23.8031 33.8097 23.7191 34.2085 23.7152H34.2372C34.6387 23.715 35.0361 23.7962 35.4054 23.9538C35.7747 24.1114 36.1082 24.3421 36.3858 24.6322C36.6635 24.9222 36.8795 25.2655 37.0208 25.6413C37.1621 26.0171 37.2258 26.4176 37.2081 26.8188L37.2136 26.8105Z" fill="#FF8600"/>
</svg>
