<svg width="70" height="70" viewBox="0 0 70 70" fill="none" xmlns="http://www.w3.org/2000/svg">
<path d="M63.4375 10.9375C64.0177 10.9375 64.5741 11.168 64.9843 11.5782C65.3945 11.9884 65.625 12.5448 65.625 13.125V43.75C65.625 44.3302 65.3945 44.8866 64.9843 45.2968C64.5741 45.707 64.0177 45.9375 63.4375 45.9375H6.5625C5.98234 45.9375 5.42594 45.707 5.0157 45.2968C4.60547 44.8866 4.375 44.3302 4.375 43.75V13.125C4.375 12.5448 4.60547 11.9884 5.0157 11.5782C5.42594 11.168 5.98234 10.9375 6.5625 10.9375H63.4375ZM35 50.3606C37.5754 50.3566 40.1105 50.9994 42.3728 52.2302C44.6351 53.4609 46.5521 55.24 47.9478 57.4044C48.0555 57.5715 48.1161 57.7645 48.1234 57.9632C48.1307 58.1618 48.0843 58.3588 47.9892 58.5333C47.8941 58.7079 47.7537 58.8536 47.5829 58.9552C47.412 59.0568 47.2169 59.1105 47.0181 59.1106H22.9819C22.7831 59.1105 22.588 59.0568 22.4171 58.9552C22.2463 58.8536 22.1059 58.7079 22.0108 58.5333C21.9157 58.3588 21.8693 58.1618 21.8766 57.9632C21.8839 57.7645 21.9445 57.5715 22.0522 57.4044C23.4482 55.2404 25.3653 53.4617 27.6276 52.2314C29.8898 51.0011 32.4248 50.3586 35 50.3628" fill="#FF8600"/>
</svg>
