<svg width="70" height="70" viewBox="0 0 70 70" fill="none" xmlns="http://www.w3.org/2000/svg">
<path fill-rule="evenodd" clip-rule="evenodd" d="M13.125 35C13.125 29.1984 15.4297 23.6344 19.532 19.532C23.6344 15.4297 29.1984 13.125 35 13.125C40.8016 13.125 46.3656 15.4297 50.468 19.532C54.5703 23.6344 56.875 29.1984 56.875 35C56.875 40.8016 54.5703 46.3656 50.468 50.468C46.3656 54.5703 40.8016 56.875 35 56.875C29.1984 56.875 23.6344 54.5703 19.532 50.468C15.4297 46.3656 13.125 40.8016 13.125 35ZM35 8.75C31.5528 8.75 28.1394 9.42898 24.9546 10.7482C21.7698 12.0673 18.876 14.0009 16.4384 16.4384C14.0009 18.876 12.0673 21.7698 10.7482 24.9546C9.42898 28.1394 8.75 31.5528 8.75 35C8.75 38.4472 9.42898 41.8606 10.7482 45.0454C12.0673 48.2302 14.0009 51.124 16.4384 53.5616C18.876 55.9991 21.7698 57.9327 24.9546 59.2518C28.1394 60.571 31.5528 61.25 35 61.25C41.9619 61.25 48.6387 58.4844 53.5616 53.5616C58.4844 48.6387 61.25 41.9619 61.25 35C61.25 28.0381 58.4844 21.3613 53.5616 16.4384C48.6387 11.5156 41.9619 8.75 35 8.75ZM26.9792 30.625C27.9461 30.625 28.8734 30.2409 29.5572 29.5572C30.2409 28.8734 30.625 27.9461 30.625 26.9792C30.625 26.0122 30.2409 25.0849 29.5572 24.4012C28.8734 23.7174 27.9461 23.3333 26.9792 23.3333C26.0122 23.3333 25.0849 23.7174 24.4012 24.4012C23.7174 25.0849 23.3333 26.0122 23.3333 26.9792C23.3333 27.9461 23.7174 28.8734 24.4012 29.5572C25.0849 30.2409 26.0122 30.625 26.9792 30.625ZM46.6667 26.9792C46.6667 27.9461 46.2826 28.8734 45.5988 29.5572C44.9151 30.2409 43.9878 30.625 43.0208 30.625C42.0539 30.625 41.1266 30.2409 40.4428 29.5572C39.7591 28.8734 39.375 27.9461 39.375 26.9792C39.375 26.0122 39.7591 25.0849 40.4428 24.4012C41.1266 23.7174 42.0539 23.3333 43.0208 23.3333C43.9878 23.3333 44.9151 23.7174 45.5988 24.4012C46.2826 25.0849 46.6667 26.0122 46.6667 26.9792ZM25.375 40.0342L25.3633 40.0108C25.1367 39.4875 24.7146 39.0734 24.187 38.8567C23.6594 38.6401 23.0681 38.638 22.5391 38.851C22.01 39.064 21.5851 39.4752 21.3548 39.9969C21.1245 40.5187 21.1071 41.1098 21.3063 41.6442L23.3333 40.8333C21.3033 41.6442 21.3033 41.6471 21.3033 41.65L21.3063 41.6558L21.3121 41.6675L21.3237 41.6996C21.3799 41.836 21.4412 41.9703 21.5075 42.1021C22.2389 43.5501 23.1936 44.8739 24.3367 46.025C26.495 48.1804 29.9425 50.3125 35 50.3125C40.0575 50.3125 43.5079 48.1804 45.6604 46.025C46.5406 45.1474 47.3096 44.1649 47.95 43.0996C48.2172 42.6464 48.4596 42.179 48.6763 41.6996L48.6879 41.6675L48.6937 41.6558V41.65C48.6937 41.6471 48.6967 41.6442 46.6667 40.8333L48.6967 41.6442C48.8842 41.1127 48.8594 40.5293 48.6274 40.0157C48.3954 39.5021 47.9741 39.0978 47.4513 38.8872C46.9285 38.6766 46.3446 38.6759 45.8213 38.8852C45.2981 39.0945 44.8758 39.4978 44.6425 40.0108L44.6308 40.0342L44.5579 40.1917C44.0393 41.2021 43.3684 42.1268 42.5688 42.9333C41.0754 44.4238 38.6896 45.9375 35 45.9375C31.3104 45.9375 28.9246 44.4238 27.4312 42.9333C26.6327 42.1266 25.9628 41.2019 25.445 40.1917L25.375 40.0342Z" fill="#FF8600"/>
</svg>
