<svg width="70" height="70" viewBox="0 0 70 70" fill="none" xmlns="http://www.w3.org/2000/svg">
<path d="M19.3083 31.4708C23.5083 39.725 30.275 46.4917 38.5292 50.6917L44.9458 44.275C45.7625 43.4583 46.9 43.225 47.9208 43.5458C51.1875 44.625 54.6875 45.2083 58.3333 45.2083C59.1069 45.2083 59.8488 45.5156 60.3957 46.0626C60.9427 46.6096 61.25 47.3515 61.25 48.125V58.3333C61.25 59.1069 60.9427 59.8488 60.3957 60.3957C59.8488 60.9427 59.1069 61.25 58.3333 61.25C45.183 61.25 32.5713 56.0261 23.2726 46.7274C13.9739 37.4287 8.75 24.817 8.75 11.6667C8.75 10.8931 9.05729 10.1513 9.60427 9.60427C10.1513 9.05729 10.8931 8.75 11.6667 8.75H21.875C22.6485 8.75 23.3904 9.05729 23.9374 9.60427C24.4844 10.1513 24.7917 10.8931 24.7917 11.6667C24.7917 15.3125 25.375 18.8125 26.4542 22.0792C26.775 23.1 26.5417 24.2375 25.725 25.0542L19.3083 31.4708Z" fill="#FF8600"/>
</svg>
